<svg xmlns="http://www.w3.org/2000/svg" xmlns:xlink="http://www.w3.org/1999/xlink" width="670.088" height="638.073" viewBox="0 0 770.088 738.073">
  <defs>
    <clipPath id="clip-path">
      <rect width="670.088" height="638.073" fill="none"/>
    </clipPath>
  </defs>
  <g id="undraw_social_influencer_sgsv" clip-path="url(#clip-path)">
    <path id="Path_3" data-name="Path 3" d="M1090.108,572.372c0,145.262-73.026,195.982-163.108,195.982s-163.108-50.72-163.108-195.982S927,242.314,927,242.314,1090.108,427.11,1090.108,572.372Z" transform="translate(-420.02 -181.997)" fill="#f2f2f2"/>
    <path id="Path_4" data-name="Path 4" d="M811.167,632.01l1.67-117.8,69.521-145.73L813.1,495.737l.751-52.966,47.913-105.434-47.715,91.417h0l1.351-95.263,51.307-83.939-51.095,68.959.844-174.675-5.3,231.238.436-9.539L759.424,274.05l51.327,109.8-4.86,106.39-.145-2.823L745.61,391.138l59.954,106.253-.608,13.305-.109.2.05,1.092L792.566,781.911h16.475l1.977-139.42L870.825,536.5Z" transform="translate(-310.128 -143.838)" fill="#3f3d56"/>
    <path id="Path_5" data-name="Path 5" d="M198.108,724.934c0,33.219-19.748,44.817-44.108,44.817s-44.108-11.6-44.108-44.817S154,649.456,154,649.456,198.108,691.715,198.108,724.934Z" transform="translate(-109.892 -181.788)" fill="#f2f2f2"/>
    <path id="Path_6" data-name="Path 6" d="M42.5,666.194l.451-27.8L61.753,604,43.024,634.031l.2-12.5,12.957-24.884-12.9,21.576h0l.365-22.483,13.875-19.81L43.7,592.205l.228-41.225L42.5,605.554l.117-2.251L28.509,581.711l13.88,25.914-1.314,25.109-.039-.666L24.774,609.345l16.212,25.077-.164,3.14-.029.047.013.258-3.335,63.705h4.456l.534-32.905,16.174-25.015Z" transform="translate(0 -83.312)" fill="#3f3d56"/>
    <line id="Line_1" data-name="Line 1" x2="577.872" transform="translate(6.217 618.375)" fill="none" stroke="#3f3d56" stroke-miterlimit="10" stroke-width="2"/>
    <path id="Path_7" data-name="Path 7" d="M1004.582,770.274c0,22.469-13.356,30.314-29.834,30.314q-.573,0-1.143-.013c-.763-.016-1.52-.053-2.267-.1-14.871-1.052-26.424-9.3-26.424-30.2,0-21.625,27.634-48.912,29.71-50.932l0,0,.12-.116S1004.582,747.806,1004.582,770.274Z" transform="translate(-420.02 -181.788)" fill="#1b4a8b"/>
    <path id="Path_8" data-name="Path 8" d="M973.661,797.151,984.572,781.9l-10.939,16.921-.029,1.75c-.763-.016-1.52-.053-2.267-.1l1.176-22.479-.009-.174.02-.033.111-2.123L961.669,758.7l11,15.37.025.451.889-16.985L964.2,740.008l9.5,14.547.925-35.212,0-.12v.116l-.154,27.767L983.82,736.1l-9.385,13.4-.247,15.207,8.727-14.594-8.763,16.832-.138,8.454,12.669-20.313-12.717,23.263Z" transform="translate(-420.02 -181.788)" fill="#3f3d56"/>
    <rect id="Rectangle_1" data-name="Rectangle 1" width="10.312" height="85.02" rx="2.292" transform="translate(386.772 152.803)" fill="#3f3d56"/>
    <rect id="Rectangle_2" data-name="Rectangle 2" width="5.787" height="27.989" rx="1.503" transform="translate(153.907 127.85)" fill="#3f3d56"/>
    <rect id="Rectangle_3" data-name="Rectangle 3" width="6.524" height="48.718" rx="1.695" transform="translate(153.709 141.391)" fill="#3f3d56"/>
    <rect id="Rectangle_4" data-name="Rectangle 4" width="6.208" height="49.139" rx="1.613" transform="translate(153.804 196.328)" fill="#3f3d56"/>
    <rect id="Rectangle_5" data-name="Rectangle 5" width="345.104" height="599.724" rx="35.694" transform="translate(117.196 18.338)" fill="#3f3d56"/>
    <rect id="Rectangle_6" data-name="Rectangle 6" width="48.192" height="9.786" rx="2.542" transform="translate(245.748 39.283)" fill="#e6e8ec"/>
    <circle id="Ellipse_2" data-name="Ellipse 2" cx="5.551" cy="5.551" r="5.551" transform="translate(288.163 38.625)" fill="#e6e8ec"/>
    <path id="Path_9" data-name="Path 9" d="M662.72,139.965V656.716c0,12.817-12.269,23.21-27.4,23.211H387.65c-15.14,0-27.409-10.393-27.41-23.214V139.965c0-12.826,12.274-23.221,27.412-23.219H424.71v4.032c0,10.558,10.106,19.116,22.57,19.119H573.23c12.465,0,22.57-8.56,22.57-19.119v-4.032h39.51c15.141,0,27.413,10.4,27.41,23.221Z" transform="translate(-224.45 -80.139)" fill="#fff"/>
    <rect id="Rectangle_7" data-name="Rectangle 7" width="303" height="348" transform="translate(135.513 133.023)" fill="#f2f2f2"/>
    <path id="Path_10" data-name="Path 10" d="M381.89,654.317l-1.6-1.439c-5.665-5.2-9.4-8.577-9.4-12.782a5.982,5.982,0,0,1,6.05-6.087,6.507,6.507,0,0,1,4.95,2.324,6.507,6.507,0,0,1,4.95-2.324,5.982,5.982,0,0,1,6.05,6.087c0,4.205-3.74,7.581-9.4,12.782Z" transform="translate(-199.364 -143.45)" fill="#ff6584"/>
    <path id="Path_11" data-name="Path 11" d="M439.723,649l3.083.881a10.4,10.4,0,0,1,16.536-4.565l-4.708,4.565H466.39V638.449l-4.738,4.542A13.622,13.622,0,0,0,439.723,649Z" transform="translate(-198.165 -145.033)" fill="#f2f2f2"/>
    <circle id="Ellipse_3" data-name="Ellipse 3" cx="14" cy="14" r="14" transform="translate(155.622 143.066)" fill="#1b4a8b"/>
    <rect id="Rectangle_8" data-name="Rectangle 8" width="130" height="16" transform="translate(193.393 149.544)" fill="#1b4a8b"/>
    <rect id="Rectangle_9" data-name="Rectangle 9" width="130" height="16" transform="translate(162.795 526.505)" fill="#f2f2f2"/>
    <path id="Path_78" data-name="Path 78" d="M0,0H275V16H0Z" transform="translate(147.221 554.255)" fill="#f2f2f2"/>
    <path id="Path_12" data-name="Path 12" d="M426.89,653.305l-3.445-6.029a8.893,8.893,0,1,0-3.087,3.851Z" transform="translate(-196.693 -144.352)" fill="#f2f2f2"/>
    <path id="Path_13" data-name="Path 13" d="M485.753,339.779h0a40,40,0,0,0-31.168,47.207l8.255,40.34,9.243-1.892.652-4.275,1.935,3.746,56.194-11.5.652-4.275,1.935,3.746,7.763-1.589-8.255-40.341a40,40,0,0,0-47.207-31.168Z" transform="translate(-229.346 -119.216)" fill="#2f2e41"/>
    <path id="Path_14" data-name="Path 14" d="M445.5,365.067l48,29-6,14-45-21Z" transform="translate(-147.685 -38.192)" fill="#9f616a"/>
    <path id="Path_15" data-name="Path 15" d="M494.39,496.543s-97,0-113,25-3,60,47,68,202,12,214-18,3-47,3-47S593.39,488.543,494.39,496.543Z" transform="translate(-226.231 -148.063)" fill="#1b4a8b"/>
    <path id="Path_16" data-name="Path 16" d="M580.39,520.543l53,20s22-16,11-34-61-122-61-122-14-20,4-31,25,7,25,7-1,4,6,1,20,7,13,23-12,20,3,19c5.417-.361,10.181-4.243,14.059-9.056,7.431-9.225,4.114-16.655,3.552-28.487-.963-20.27-2.538-33.486-7.61-41.457-7-11-17-20-43-15s-64,30-55,66,29,76,29,76S589.39,507.543,580.39,520.543Z" transform="translate(-240.647 -121.92)" fill="#1b4a8b"/>
    <path id="Path_17" data-name="Path 17" d="M580.39,520.543c-8.64,2.38-19.49,3.54-31.17,3.9-20.38.63-43.32-1.17-61.64-3.21-19.79-2.21-34.19-4.69-34.19-4.69,6.69-6.24,16.97-8.71,29.05-9.61,15-1.12,32.78.16,49.95-.39a86.273,86.273,0,0,1,18.89,1.42C570.22,511.573,580.39,520.543,580.39,520.543Z" transform="translate(-234.747 -141.215)" opacity="0.1"/>
    <circle id="Ellipse_4" data-name="Ellipse 4" cx="28" cy="28" r="28" transform="translate(236.54 236.881)" fill="#9f616a"/>
    <path id="Path_18" data-name="Path 18" d="M490.39,407.543s5,19,0,20-17,6-17,6l15,6,28,26,24,12,12-4v-22l-18-28s-12,4-15-9-9-18-9-18Z" transform="translate(-234.979 -128.716)" fill="#9f616a"/>
    <path id="Path_19" data-name="Path 19" d="M483.39,434.543h-12s-21,7-33,23-31,32-31,32-13,18-6,43,17,43,26,38-13-41-13-41l6-22s31-36,44-35,14,12,14,12l28,8,9-19-5-20Z" transform="translate(-234.763 -132.135)" fill="#9f616a"/>
    <path id="Path_20" data-name="Path 20" d="M555.39,497.543a36.989,36.989,0,0,0-4.11,10.42,81.165,81.165,0,0,0-2.06,16.48c-20.38.63-43.32-1.17-61.64-3.21-1.62-4.32-3.4-9.29-5.14-14.3-4.69-13.54-9.05-27.36-9.05-29.39,0-4,21,3,26,2s7-17,0-25-27.5-21.5-27.5-21.5l7-2s15.5,11.5,47.5,30.5,19-11,19-11l-18.5-28.5h8s15.5,26.5,23.5,38.5S563.39,484.543,555.39,497.543Z" transform="translate(-236.174 -135.163)" fill="#3f3d56"/>
    <rect id="Rectangle_11" data-name="Rectangle 11" width="51.765" height="31.765" transform="matrix(0.98, -0.2, 0.2, 0.98, 234.477, 239.995)" fill="#2f2e41"/>
    <circle id="Ellipse_5" data-name="Ellipse 5" cx="15" cy="15" r="15" transform="translate(335.463 208.248)" fill="#3f3d56"/>
    <circle id="Ellipse_6" data-name="Ellipse 6" cx="8" cy="8" r="8" transform="translate(342.572 214.853)" fill="#fff"/>
    <path id="Path_21" data-name="Path 21" d="M182.627,509.188l-1.022,7.891c-.346,2.672-.692,5.345-.878,8.032-.62,8.94.536,17.915.232,26.871-.234,6.9-1.333,13.786-.8,20.664.469,6.084,2.2,11.991,3.923,17.845l2.461,8.368a1.631,1.631,0,0,0,2.181,1.4l10.892-.987c-.7-3.2-1.473-6.532-1.848-9.783-.3-2.572-.475-5.155-.661-7.737-.58-8.048-1.236-16.091-1.892-24.134l-1.153-14.128c-.5-6.129-1.006-12.293-2.549-18.245a36.327,36.327,0,0,0-8.883-16.061Z" transform="translate(-109.892 -149.464)" fill="#1b4a8b"/>
    <path id="Path_22" data-name="Path 22" d="M182.627,509.188l-1.022,7.891c-.346,2.672-.692,5.345-.878,8.032-.62,8.94.536,17.915.232,26.871-.234,6.9-1.333,13.786-.8,20.664.469,6.084,2.2,11.991,3.923,17.845l2.461,8.368a1.631,1.631,0,0,0,2.181,1.4l10.892-.987c-.7-3.2-1.473-6.532-1.848-9.783-.3-2.572-.475-5.155-.661-7.737-.58-8.048-1.236-16.091-1.892-24.134l-1.153-14.128c-.5-6.129-1.006-12.293-2.549-18.245a36.327,36.327,0,0,0-8.883-16.061Z" transform="translate(-109.892 -149.464)" opacity="0.1"/>
    <path id="Path_23" data-name="Path 23" d="M202.031,779.777a32.244,32.244,0,0,0-1.671,3.884c-1.251,3.671-1.44,7.606-1.617,11.48a5.485,5.485,0,0,0,.2,2.224c.534,1.393,2.075,2.1,3.516,2.486,6.032,1.622,12.393.1,18.615-.461,6.107-.546,12.328-.151,18.31-1.5a9.108,9.108,0,0,0,2.536-.881,7.882,7.882,0,0,0,3.2-4.184,5.349,5.349,0,0,0,.364-1.375c.2-2.038-1.579-3.809-3.514-4.479s-4.039-.559-6.076-.769a19.158,19.158,0,0,1-16.952-15.99c-.072-.445-10.073-.182-11.125.4-1.232.676-1.978,2.363-2.672,3.5Q203.468,776.874,202.031,779.777Z" transform="translate(-109.892 -181.788)" fill="#3f3d56"/>
    <path id="Path_24" data-name="Path 24" d="M202.031,779.777a32.244,32.244,0,0,0-1.671,3.884c-1.251,3.671-1.44,7.606-1.617,11.48a5.485,5.485,0,0,0,.2,2.224c.534,1.393,2.075,2.1,3.516,2.486,6.032,1.622,12.393.1,18.615-.461,6.107-.546,12.328-.151,18.31-1.5a9.108,9.108,0,0,0,2.536-.881,7.882,7.882,0,0,0,3.2-4.184,5.349,5.349,0,0,0,.364-1.375c.2-2.038-1.579-3.809-3.514-4.479s-4.039-.559-6.076-.769a19.158,19.158,0,0,1-16.952-15.99c-.072-.445-10.073-.182-11.125.4-1.232.676-1.978,2.363-2.672,3.5Q203.468,776.874,202.031,779.777Z" transform="translate(-109.892 -181.788)" opacity="0.1"/>
    <path id="Path_25" data-name="Path 25" d="M218.612,780.724a32.236,32.236,0,0,0-1.671,3.884c-1.251,3.671-1.439,7.606-1.617,11.48a5.485,5.485,0,0,0,.2,2.224c.534,1.393,2.075,2.1,3.516,2.486,6.032,1.622,12.393.1,18.615-.461,6.107-.546,12.328-.151,18.31-1.5a9.108,9.108,0,0,0,2.536-.881,7.882,7.882,0,0,0,3.2-4.184,5.348,5.348,0,0,0,.364-1.375c.2-2.038-1.579-3.809-3.514-4.479s-4.039-.559-6.076-.769a19.158,19.158,0,0,1-16.952-15.99c-.072-.445-10.073-.182-11.126.4-1.232.676-1.978,2.363-2.672,3.5Q220.049,777.822,218.612,780.724Z" transform="translate(-109.552 -181.788)" fill="#3f3d56"/>
    <path id="Path_26" data-name="Path 26" d="M261.861,682.01c.129,20.082-5.711,39.711-12.561,58.588q-4.068,11.209-8.633,22.223c-1.8,4.352-3.832,9.179-1.9,13.475-5.557-2.115-11.246-3.364-17.112-2.388,2.233-4.551,2.023-9.849,2.122-14.916A129.863,129.863,0,0,1,225.99,738.5a114.213,114.213,0,0,1,10.019-29.629,22.4,22.4,0,0,0,1.942-6.246,39.732,39.732,0,0,0-.825-14.419,86.051,86.051,0,0,0-11.983-29.364c-.018.2-.037.4-.059.6a87.606,87.606,0,0,1-1.507,8.888c-1.312,6.22-2.841,12.443-2.612,18.7a100.6,100.6,0,0,1-1.227,19.824,29.985,29.985,0,0,1-1.993,7.495c-.641,1.437-1.478,2.789-1.982,4.278a19.538,19.538,0,0,0-.778,5.295c-.748,15.122-.011,34.473,3.08,49.3a28.8,28.8,0,0,0-14.979,3.412c-3.736-10.542-6.117-25.515-7.9-36.618a108.4,108.4,0,0,1,1.209-39.457,52.68,52.68,0,0,0,.977-13.155c-.4-8.781-2.557-17.37-4.7-25.893q-1.636-6.489-3.272-12.981-2.327-9.247-4.661-18.5c-1.032-4.1-2.075-8.291-1.75-12.51a31.186,31.186,0,0,1,1.448-6.8,76,76,0,0,1,10.288-21.044c17.9,1.006,36.026-.671,53.9-2.045a3.614,3.614,0,0,1,2.535.431,3.576,3.576,0,0,1,1.017,2.3q3.361,19.03,6.717,38.06a95.915,95.915,0,0,1,1.912,16.084c.033,5.387-.84,10.756-.637,16.139C260.446,667.9,261.817,674.755,261.861,682.01Z" transform="translate(-109.892 -181.788)" fill="#2f2e41"/>
    <path id="Path_27" data-name="Path 27" d="M225.083,659.441a87.606,87.606,0,0,1-1.507,8.888c-3.895-6.736-8.092-13.3-11.677-20.207-.925-1.78-1.805-3.582-2.69-5.38l-2.642-5.394c-.494-1.01-.991-2.023-1.437-3.058a22.186,22.186,0,0,1-1.665-4.676c1.3-.24,4.517,3.276,5.483,4.193a74.759,74.759,0,0,1,5.6,6.176,67.22,67.22,0,0,1,5.818,7.616A37.1,37.1,0,0,1,225.083,659.441Z" transform="translate(-109.892 -163.129)" opacity="0.1"/>
    <path id="Path_28" data-name="Path 28" d="M240,474.591s-9.949,15.845-8.106,19.161-31.321-2.948-31.321-2.948,18.055-15.845,16.213-22.477S240,474.591,240,474.591Z" transform="translate(-109.892 -135.825)" fill="#efb7b9"/>
    <circle id="Ellipse_7" data-name="Ellipse 7" cx="22.477" cy="22.477" r="22.477" transform="translate(98.791 302.336)" fill="#efb7b9"/>
    <path id="Path_29" data-name="Path 29" d="M240.336,491.2a22.868,22.868,0,0,0-9.453-7.627,34.039,34.039,0,0,0-6.715-1.657l-8.968-1.577c-2.2-.386-4.55-.756-6.589.151a10.674,10.674,0,0,0-2.809,2.053c-3.117,2.886-6.137,6.061-10.045,7.727-1.07.456-2.189.79-3.257,1.25-4.372,1.883-7.641,5.814-9.5,10.2-1.949,4.6-2.005,9.582-1.851,14.574a25.548,25.548,0,0,0,.506,5.13,34.5,34.5,0,0,0,1.7,4.7,85.045,85.045,0,0,1,3.106,9.969q3.485,13.34,5.794,26.951a10.235,10.235,0,0,0,1.13,3.731,13.32,13.32,0,0,0,3.1,2.978,20.594,20.594,0,0,1,2.6,2.574,3.413,3.413,0,0,1,.821,1.416c.291,1.341-.895,2.491-1.857,3.47a16.765,16.765,0,0,0-4.2,7.31,2.9,2.9,0,0,0-.667,2.02,3.5,3.5,0,0,1,.209,1.594,3.683,3.683,0,0,1-.845,1.314,4.956,4.956,0,0,0-.933,3.974,63.162,63.162,0,0,0,22.01,5.153c1.858.087,3.723.087,5.569.315,1.316.162,2.617.439,3.935.593a42.475,42.475,0,0,0,5.767.147c10-.2,20.3-.457,29.489-4.424.865-4.712-1-9.513-2.168-14.158-1.86-7.388-2.329-15.051-3.712-22.543-.947-5.128-2.323-10.174-3.112-15.329s-.974-10.5.443-15.517c1.256-4.447,1.635-8.975,2.936-13.408s2.214-9.241.744-13.622C251.7,495.2,246.058,490.9,240.336,491.2Z" transform="translate(-109.892 -147.662)" fill="#1b4a8b"/>
    <path id="Path_30" data-name="Path 30" d="M251.374,444.988c1.093-3.991-1.056-8.146-3.628-11.388-2.763-3.484-6.333-6.627-10.693-7.5-3.543-.711-7.214.147-10.816-.138-3.193-.253-6.252-1.4-9.429-1.809a29.868,29.868,0,0,0-8.618.327,32.07,32.07,0,0,0-7.856,2.194c-9.568,4.24-15.174,14.71-16.475,25.094s.98,20.846,3.248,31.063l2.05,9.235c2.133,9.612,4.274,19.275,4.845,29.1s-.494,19.921-4.538,28.9a62.154,62.154,0,0,0,28.557-32.332c1.454-3.8,2.53-7.745,4.141-11.483,1.386-3.216,3.16-6.262,4.388-9.541a31.071,31.071,0,0,0,1.959-11.594c-.07-2.971-.567-5.929-.48-8.9s.842-6.072,2.9-8.22c1.826-1.91,4.42-2.827,6.773-4.03a28.111,28.111,0,0,0,9.463-7.9c1.481-1.93,1.56-2.754,1.937-4.981C249.465,448.925,250.8,447.09,251.374,444.988Z" transform="translate(-109.892 -137.93)" fill="#2f2e41"/>
    <path id="Path_31" data-name="Path 31" d="M251.405,613.847c.228,2.311-.192,4.679.313,6.946.38,1.7,1.262,3.251,1.781,4.917a23.327,23.327,0,0,1,.789,5.918c.075,1.676-.054,3.714-1.536,4.5-.651.345-1.432.352-2.11.641s-1.259,1.111-.871,1.737c.326.527,1.067.533,1.674.658s1.275.753.923,1.263a1.085,1.085,0,0,1-.541.344,6.212,6.212,0,0,0-1.741.838,1.755,1.755,0,0,0-.717,1.693,1.045,1.045,0,0,0,1.5.689,4.638,4.638,0,0,0-.436,1.853c2.372,1.02,5.042-.314,7.274-1.611a27.364,27.364,0,0,0,2.8-1.781,13.937,13.937,0,0,0,5.394-11.862,27.377,27.377,0,0,0-.524-3.393A51.95,51.95,0,0,0,264,621.431c-.638-2-1.515-3.909-2.267-5.867-1.6-4.171-2.635-8.538-4.078-12.767a1.475,1.475,0,0,0-1.728-1.3,16.962,16.962,0,0,0-4.84.445c-.957.279-2.527.894-2.956,1.9-.387.9.261,1.712.672,2.485a20.662,20.662,0,0,1,2.6,7.523Z" transform="translate(-110.466 -154.341)" fill="#efb7b9"/>
    <path id="Path_32" data-name="Path 32" d="M249.885,500.926a6.656,6.656,0,0,1,1.191,1.656c3.194,5.8,3.234,12.752,3.384,19.375.169,7.455.577,14.9.985,22.349l1.22,22.269c.117,2.128.233,4.258.532,6.368,1.435.362,1.495,2.217,1.328,3.688-1.027,9.088-3.584,18.443-.907,27.187a2.718,2.718,0,0,0,.626,1.212,7.212,7.212,0,0,0-4.155-.056c-1.335.281-2.618.769-3.948,1.072-1.692.385-3.611.551-4.765,1.846a92.365,92.365,0,0,1-3.109-12.012c-.634-3.7-.806-7.543-2.313-10.979-.608-1.388-1.421-2.674-2.163-3.995-3.9-6.95-5.813-14.812-7.68-22.56a32.91,32.91,0,0,1-.594-11.208,40.527,40.527,0,0,0,.466-5.158,41.58,41.58,0,0,0-.715-5.426,36.459,36.459,0,0,1,1.082-15.711c1.4-4.732,2.624-9.711,5.549-13.686S244.951,500.993,249.885,500.926Z" transform="translate(-109.518 -149.928)" opacity="0.1"/>
    <path id="Path_33" data-name="Path 33" d="M250.99,500.189a6.657,6.657,0,0,1,1.191,1.656c3.194,5.8,3.234,12.752,3.384,19.375.169,7.455.577,14.9.985,22.349l1.22,22.269c.117,2.128.233,4.258.532,6.368,1.435.362,1.495,2.217,1.328,3.688-1.027,9.088-3.584,18.443-.907,27.187a2.717,2.717,0,0,0,.626,1.212,7.212,7.212,0,0,0-4.155-.056c-1.335.281-2.618.769-3.948,1.072-1.692.385-3.611.551-4.765,1.846a92.369,92.369,0,0,1-3.109-12.012c-.634-3.7-.806-7.543-2.313-10.979-.608-1.388-1.421-2.674-2.163-3.995-3.9-6.95-5.813-14.812-7.68-22.56a32.91,32.91,0,0,1-.594-11.208,40.522,40.522,0,0,0,.466-5.158,41.582,41.582,0,0,0-.715-5.426,36.459,36.459,0,0,1,1.082-15.711c1.4-4.732,2.624-9.711,5.549-13.686S246.056,500.256,250.99,500.189Z" transform="translate(-108.514 -150.794)" fill="#1b4a8b"/>
    <g id="Group_1" data-name="Group 1" transform="translate(79.573 286.05)" opacity="0.1">
      <path id="Path_34" data-name="Path 34" d="M247.746,433.6c-2.763-3.484-6.333-6.627-10.693-7.5-3.543-.711-7.214.147-10.816-.138-3.193-.253-6.252-1.4-9.429-1.809a29.867,29.867,0,0,0-8.618.327,32.071,32.071,0,0,0-7.856,2.194,22.971,22.971,0,0,0-3.872,2.2,33.727,33.727,0,0,1,6.938-1.811,29.867,29.867,0,0,1,8.618-.327c3.176.411,6.236,1.556,9.429,1.809,3.6.286,7.273-.573,10.816.138,4.359.875,7.93,4.018,10.693,7.5,2.572,3.242,4.721,7.4,3.628,11.388-.576,2.1-1.91,3.937-2.276,6.1-.377,2.226-.456,3.051-1.937,4.981a28.22,28.22,0,0,1-6.824,6.355c.721-.343,1.447-.678,2.151-1.038a28.113,28.113,0,0,0,9.463-7.9c1.481-1.93,1.56-2.754,1.937-4.981.366-2.166,1.7-4,2.276-6.1C252.467,441,250.318,436.842,247.746,433.6Z" transform="translate(-189.464 -423.98)"/>
      <path id="Path_35" data-name="Path 35" d="M230.926,468a9.531,9.531,0,0,1,1.257-1.091c-2.148,1.04-4.407,1.955-6.047,3.67-2.054,2.149-2.81,5.249-2.9,8.22s.411,5.929.48,8.9a31.07,31.07,0,0,1-1.96,11.593c-1.228,3.279-3,6.325-4.388,9.541-1.61,3.738-2.687,7.682-4.141,11.483a62.249,62.249,0,0,1-23.608,29.379c-.054.124-.1.25-.159.373a62.153,62.153,0,0,0,28.557-32.332c1.454-3.8,2.53-7.745,4.141-11.483,1.386-3.216,3.16-6.262,4.388-9.541a31.069,31.069,0,0,0,1.96-11.593c-.07-2.972-.567-5.929-.48-8.9S228.872,470.146,230.926,468Z" transform="translate(-189.464 -423.98)"/>
    </g>
    <path id="Path_36" data-name="Path 36" d="M724.557,798.363c-1.07,1.291-2.9,1.551-4.56,1.722a25.957,25.957,0,0,1-6.465.123c-2.557-.38-4.088,1.073-6.424-.045-1.413-.676-3.587.676-5,0-1.936-.927-8.624-1.119-9.8-2.928s-1.059-4.667.805-5.734a12.436,12.436,0,0,1,1.633-.639c3.121-1.242,9.443-10.611,12.763-11.091a8.846,8.846,0,0,1,4.723,1.113c3.274,1.453,9.055,2.6,10.483,6.29C723.827,790.048,726.872,795.554,724.557,798.363Z" transform="translate(-300.503 -181.788)" fill="#2f2e41"/>
    <path id="Path_37" data-name="Path 37" d="M748.077,797.622c1.07,1.291,2.9,1.551,4.56,1.722a25.957,25.957,0,0,0,6.465.123c2.557-.381,5.671,1.814,8.007.7,1.413-.676,3.587-.324,5-1,1.936-.927,11.041,1.14,12.22-.669s1.059-4.667-.805-5.734a12.434,12.434,0,0,0-1.633-.639c-3.121-1.242-13.443-12.611-16.763-13.091a8.846,8.846,0,0,0-4.723,1.113c-3.274,1.453-9.055,2.6-10.483,6.29C748.807,789.306,745.762,794.813,748.077,797.622Z" transform="translate(-319.64 -181.788)" fill="#2f2e41"/>
    <path id="Path_38" data-name="Path 38" d="M758.417,593.426a50.893,50.893,0,0,1,2.675,6.079c9.078,24.015,9.838,50.259,10.213,75.93a96.936,96.936,0,0,0,.714,12.489c.38,2.627.981,5.283.594,7.909-.335,2.271-1.4,4.51-.977,6.766.191,1.012.676,1.95.867,2.962a10.506,10.506,0,0,1-.09,3.335l-1.217,9.056c-.693,5.159-2.293,10.127-2.206,15.331.059,3.55.119,7.106.515,10.634.4,3.583,1.148,7.138,1.187,10.742.029,2.7-.341,5.385-.58,8.074a83.462,83.462,0,0,0-.229,11.422c.142,2.934.479,5.981,2.035,8.472-1.743,2.5-3.469,4.74-6.26,5.964-5.672,2.487-12.18,1.643-18.309.753.34-1.131.865-2.413.375-3.487a7,7,0,0,0-1.052-1.432,16.823,16.823,0,0,1-2.727-6.342c-.742-2.7-1.485-5.614.039-8.209a5.241,5.241,0,0,0,.664-3.044c-1.269-17.024-5.057-34.638-1.568-51.346.372-1.783.816-3.556,1.024-5.366a65.239,65.239,0,0,0,.093-7.823l-.073-3.629c-.182-3.873-.024-7.842-.8-11.672-.556-2.743-1.595-5.5-.315-8.3a4.56,4.56,0,0,0-.19-4.028,74.073,74.073,0,0,1-6.457-14.906,26.236,26.236,0,0,0-1.36-4.243,30.267,30.267,0,0,0-2.684-4.13c-3.037-4.4-4.853-9.515-6.636-14.559.19-.463.044-1.107-.452-1.04a1.911,1.911,0,0,0-1.17.874c-2.443,3.283-2.648,7.663-2.758,11.754a86.708,86.708,0,0,0,.194,11.4c.209,1.987.555,3.958.734,5.948a70.825,70.825,0,0,1-.176,11.142L720.8,695.134a13.245,13.245,0,0,0,.268,4.507,25.279,25.279,0,0,1,1.155,7.9,142.2,142.2,0,0,0,2.836,32.806c.609,2.979,1.313,5.939,1.83,8.935,1.218,7.061,1.385,14.255,1.549,21.418.1,4.4.173,8.967-1.562,13.016a15.045,15.045,0,0,0-1.478,3.974,8.63,8.63,0,0,1-.283,2.12c-.509,1.311-2.037,1.869-3.411,2.168a27.649,27.649,0,0,1-7.865.56,4.582,4.582,0,0,1-1.794-.4c-.983-.509-1.5-1.588-2.252-2.4-1.612-1.761-4.292-2.3-5.761-4.183-1.837-2.354-1.065-5.764.028-8.542s2.447-5.8,1.505-8.628c-1.109-3.339-5.041-5.138-6.1-8.494,3.013-13.537-4.385-27.539-3.751-41.393.148-3.227.708-6.431.719-9.661.029-8.321-3.575-16.418-2.982-24.718,1.507-21.092-5.677-42.149-8.721-63.075a41.373,41.373,0,0,1-.642-9.476c.452-5.238,2.883-10.113,5.808-14.482,2.1-3.13,4.615-6.194,8.086-7.659,2.858-1.206,6.061-1.2,9.163-1.177,7.739.06,15.479.12,23.217.259a76.391,76.391,0,0,1,15.7,1.4C750.25,590.865,754.166,592.817,758.417,593.426Z" transform="translate(-307.619 -173.788)" fill="#2f2e41"/>
    <path id="Path_39" data-name="Path 39" d="M633.371,497.27c-.749-3.669.667-7.594-.441-11.171-.4-1.29-1.381-2.63-2.731-2.593-1.312.036-2.2,1.32-3.362,1.928-1.874.98-4.15.09-6.023-.892s-3.961-2.094-5.992-1.505c-.239,1.272.62,2.486,1.555,3.381a9.145,9.145,0,0,1,2.514,2.915,12.531,12.531,0,0,1,.343,3.768c.213,2.906,2.053,5.409,3.892,7.669a138.406,138.406,0,0,0,9.428,10.455c-.006-.006,5.033-6.241,4.937-7.331-.091-1.027-1.787-1.988-2.4-2.817A9.652,9.652,0,0,1,633.371,497.27Z" transform="translate(-308.421 -146.445)" fill="#a1616a"/>
    <path id="Path_40" data-name="Path 40" d="M783.432,574.069a19.59,19.59,0,0,1,1.005,3.6c1.3,6.3,2.119,12.689,2.927,19.071.216,1.7.431,3.409.5,5.125a23.457,23.457,0,0,1-2.431,11.787,16.5,16.5,0,0,1-8.835,7.961c-1.181.42-2.831.5-3.346-.646a2.432,2.432,0,0,1,.012-1.629c.466-1.7,1.414-3.225,2.029-4.876a13.157,13.157,0,0,0,.437-7.706c-.242-.977-.754-2.067-1.741-2.262a8.763,8.763,0,0,1-1.155,6.557,2.318,2.318,0,0,1-1.346,1.141,1.812,1.812,0,0,1-1.9-1.224,5.229,5.229,0,0,1-.153-2.426,82.1,82.1,0,0,1,1.865-12.16c1.1-4.391,2.845-8.724,2.733-13.25-.1-4.1-1.735-8.128-1.278-12.206a1.268,1.268,0,0,1,.233-.7,1.3,1.3,0,0,1,.511-.315,25.667,25.667,0,0,1,3.525-1.167c.71-.179,3.134-1.021,3.814-.644.551.3.721,2.132,1,2.75C782.321,571.947,782.97,572.962,783.432,574.069Z" transform="translate(-307.561 -158.983)" fill="#a1616a"/>
    <circle id="Ellipse_8" data-name="Ellipse 8" cx="16.747" cy="16.747" r="16.747" transform="translate(387.219 290.385)" fill="#a1616a"/>
    <path id="Path_41" data-name="Path 41" d="M717.505,447.944a19.654,19.654,0,0,0,.253,3.186,18.082,18.082,0,0,0,.976,3.115,18.269,18.269,0,0,0,2.345,4.6,6.9,6.9,0,0,0,4.238,2.761,120.568,120.568,0,0,1-36.211,10.465,15.345,15.345,0,0,0,4.8-5.128,14.838,14.838,0,0,0,1.272-4.175,35.054,35.054,0,0,0-1.573-18.061c-.208-.57-.411-1.269-.017-1.731a1.64,1.64,0,0,1,.594-.386,37.345,37.345,0,0,1,15.744-2.936c1.38.01,2.759.071,4.135.17.74.053,2.375-.1,2.963.44.7.647.35,2.655.372,3.532Z" transform="translate(-300.178 -131.901)" fill="#a1616a"/>
    <path id="Path_42" data-name="Path 42" d="M726.366,460.127a17.924,17.924,0,0,0-21.438-5.342c-7.972,3.805-11.9,12.943-18.907,18.317a33.093,33.093,0,0,1-5.077,3.127,14.075,14.075,0,0,1-3.34,1.322c-1.311.289-2.679.249-3.983.563a10.261,10.261,0,0,0-5.928,4.6,32.5,32.5,0,0,1-2.179,3.362c-.733.87-1.643,1.572-2.417,2.4-2.788,3-3.545,7.3-4.18,11.34a53.712,53.712,0,0,1-7.113,6.273,10.066,10.066,0,0,1-2.642,1.461c-2.453.795-5.157-.217-7.248-1.726s-3.793-3.5-5.854-5.05c-1.894,2.707-3.873,5.423-5.891,8.039a2.593,2.593,0,0,1-1.317,1.08c-.379,1.275.53,2.6,1.21,3.739l3.652,6.137a30.573,30.573,0,0,0,4.408,6.176,10.29,10.29,0,0,0,6.683,3.25,13.4,13.4,0,0,0,4.714-.9c6.958-2.341,13.348-6.076,19.967-9.25a8.814,8.814,0,0,1,3.922-1.15,3.153,3.153,0,0,1,3.1,2.231c.759,3.833,1.513,7.653,2.557,11.419q1.476,5.328,2.743,10.71a46.563,46.563,0,0,1,1.205,6.684c.109,1.28.121,2.566.133,3.851l.141,15.526c.015,1.671-.938,2.714-1.671,4.216a9.927,9.927,0,0,0-.472,7.462c.412,1.211,1.056,2.33,1.513,3.525,1.1,2.889,1.061,6.07,1,9.162l-.132,7.085a1.512,1.512,0,0,0,.153.853c.432.676,1.475.28,2.134-.177l3.313-2.3a75.606,75.606,0,0,0,13.38.647c12.714-.184,25.432.322,38.116,1.21,4.232.3,8.607.617,12.608-.795,2.03-.716,3.9-1.862,5.975-2.436a5.487,5.487,0,0,0,2.371-.976c1.161-1.074.853-2.959.379-4.468q-.621-1.98-1.411-3.9a23.08,23.08,0,0,1-1.321-3.652c-.636-2.826-.017-6.091-1.777-8.393-3.938-5.151-1.151-13.076-2.8-19.346-.535-2.029-1.325-3.985-1.826-6.022-.315-1.279-.513-2.583-.712-3.885a46.518,46.518,0,0,1-.768-8.538c.048-1.433.228-2.857.408-4.28L753,523.436a31.073,31.073,0,0,1,3.22,9.336,138.521,138.521,0,0,0,4.2,14.408c.943,2.848,1.887,5.7,2.905,8.519a28.363,28.363,0,0,1,1.484,4.965c.225,1.369.232,2.764.39,4.142a18.942,18.942,0,0,0,3.018,8.269,2.685,2.685,0,0,0,1.413,1.254,2.784,2.784,0,0,0,1.234-.05,48.86,48.86,0,0,0,12.716-4.4,5.079,5.079,0,0,0,2.147-1.677c1.081-1.757-.128-3.953-.653-5.948-.563-2.138-.432-4.711-2.116-6.144-5.865-4.991-2.953-15.124-5.889-22.243-.515-1.25-1.116-2.465-1.56-3.742-.34-.976-.586-1.981-.834-2.985q-3.074-12.439-6.579-24.765c-2.423-8.52-2.164-17.4-5.214-25.711a27.119,27.119,0,0,0-2.235-5.015,13.6,13.6,0,0,0-4.044-4.165c-4.427-2.927-8.9-5.42-14.1-6.482S731.673,460.1,726.366,460.127Z" transform="translate(-305.459 -138.089)" fill="#d0cde1"/>
    <path id="Path_43" data-name="Path 43" d="M687.28,439.922c-2.251-1.213-1.658-4.5-2.041-7.033-.787-5.2-6.665-8.288-8.045-13.364a9.061,9.061,0,0,0,4.663-.66,7.1,7.1,0,0,0-.94-4.876c4.834-1.964,8.747-5.818,13.656-7.588,6.173-2.226,13.048-.86,19.275,1.21,3.107,1.033,6.34,2.373,8.219,5.055,2.063,2.945,2.032,6.822,1.921,10.417-.174,5.638-.4,11.477-2.906,16.528-3.2,6.431-12.244,12.387-19.719,10.645-3.109-.725-4.024-2.677-5.334-5.378-.816-1.682-1.122-3.634-2.958-4.508C691.276,439.513,689.1,440.9,687.28,439.922Z" transform="translate(-299.385 -132.354)" fill="#2f2e41"/>
    <g id="Group_2" data-name="Group 2" transform="translate(375.289 409.284)" opacity="0.1">
      <path id="Path_44" data-name="Path 44" d="M755.19,560q.031.667.037,1.343C755.207,560.9,755.2,560.45,755.19,560Z" transform="translate(-680.629 -559.999)"/>
      <path id="Path_45" data-name="Path 45" d="M682.654,576.822c1.1,2.889,1.061,6.07,1,9.162l-.045,2.421a16.484,16.484,0,0,0-.958-4.885c-.456-1.195-1.1-2.314-1.513-3.525a9.942,9.942,0,0,1,.073-6.509C681.627,574.624,682.222,575.69,682.654,576.822Z" transform="translate(-680.629 -559.999)"/>
    </g>
    <g id="Group_3" data-name="Group 3" transform="translate(390.169 288.004)" opacity="0.1">
      <path id="Path_46" data-name="Path 46" d="M681.857,416.428l-.016.006a7.048,7.048,0,0,0-.924-2.447c.284-.115.564-.238.842-.366a7.058,7.058,0,0,1,.1,2.806Z" transform="translate(-680.917 -413.622)"/>
    </g>
  </g>
</svg>
